<svg fill="#000000" viewBox="0 0 32 32" id="OBJECT" xmlns="http://www.w3.org/2000/svg">
<g id="SVGRepo_bgCarrier" stroke-width="0"></g><g id="SVGRepo_tracerCarrier" stroke-linecap="round" stroke-linejoin="round"></g>
<g id="SVGRepo_iconCarrier"><title></title><path d="M16.5,22.61l-.49.28a2.23,2.23,0,0,1-3-.69.68.68,0,0,0-.6-.33.75.75,0,0,0-.73.54,8.32,8.32,0,0,0-.37,2.39A7.72,7.72,0,0,0,11.66,27L12,27a10.9,10.9,0,0,0,6.14-1.89,7.92,7.92,0,0,1-1-2.8A3.83,3.83,0,0,0,16.5,22.61Z"></path>
<path d="M14.27,21.39a.75.75,0,0,0,1,.23l.49-.28A5.5,5.5,0,0,1,17,20.78a8,8,0,0,1,2.26-5.34,1.4,1.4,0,0,0-.9-.43l-1.57-.13a2.91,2.91,0,0,1-2.6-3.46,5.31,5.31,0,0,0-1.53-5L11.18,5A10.89,10.89,0,0,0,6.59,6.39a6.33,6.33,0,0,1,.54,4.68A5,5,0,0,0,7,12.36,4.88,4.88,0,0,0,8.1,15.49l.15.19a6.3,6.3,0,0,1,1.3,5.48L8.37,26.37a10.23,10.23,0,0,0,1.73.45,9.13,9.13,0,0,1-.23-2A9.29,9.29,0,0,1,10.32,22a2.23,2.23,0,0,1,2.12-1.57A2.15,2.15,0,0,1,14.27,21.39Z"></path>
<path d="M15.77,10.31a6.65,6.65,0,0,1-.14,1.4,1.41,1.41,0,0,0,.26,1.14,1.44,1.44,0,0,0,1,.57l1.58.12a2.85,2.85,0,0,1,1.51.6V8.43a11,11,0,0,0-6.67-3.38l.36.34A6.9,6.9,0,0,1,15.77,10.31Z"></path>
<path d="M7,16.44A6.38,6.38,0,0,1,5.5,12.36a6.3,6.3,0,0,1,.22-1.68,4.9,4.9,0,0,0-.36-3.47A11,11,0,0,0,7,25.78l1.12-5h0a4.81,4.81,0,0,0-1-4.21Z"></path>
<path d="M28,15.81V8a3,3,0,0,0-6,0v7.81a6,6,0,1,0,6,0Z"></path></g></svg>