<svg fill="#000000" height="200px" width="200px" version="1.1" id="Icons" xmlns="http://www.w3.org/2000/svg" xmlns:xlink="http://www.w3.org/1999/xlink" viewBox="0 0 32 32" xml:space="preserve">
<g id="SVGRepo_bgCarrier" stroke-width="0"></g>
<g id="SVGRepo_tracerCarrier" stroke-linecap="round" stroke-linejoin="round"></g>
<g id="SVGRepo_iconCarrier"> <g> <path d="M4,12H2c-0.6,0-1,0.4-1,1s0.4,1,1,1h2c0.6,0,1-0.4,1-1S4.6,12,4,12z"></path> 
<path d="M19.4,7.6c0.3,0,0.5-0.1,0.7-0.3l1.4-1.4c0.4-0.4,0.4-1,0-1.4c-0.4-0.4-1-0.4-1.4,0l-1.4,1.4c-0.4,0.4-0.4,1,0,1.4 C18.9,7.5,19.1,7.6,19.4,7.6z"></path> 
<path d="M13,5c0.6,0,1-0.4,1-1V2c0-0.6-0.4-1-1-1s-1,0.4-1,1v2C12,4.6,12.4,5,13,5z"></path> 
<path d="M7.3,7.3c0.4-0.4,0.4-1,0-1.4L5.9,4.5c-0.4-0.4-1-0.4-1.4,0c-0.4,0.4-0.4,1,0,1.4l1.4,1.4c0.2,0.2,0.5,0.3,0.7,0.3 S7.1,7.5,7.3,7.3z"></path> 
<path d="M20.3,23.1c-0.5-0.2-1.1,0.1-1.3,0.6l-2,6c-0.2,0.5,0.1,1.1,0.6,1.3c0.1,0,0.2,0.1,0.3,0.1c0.4,0,0.8-0.3,0.9-0.7l2-6 C21.1,23.8,20.8,23.2,20.3,23.1z"></path> 
<path d="M17.3,21.1c-0.5-0.2-1.1,0.1-1.3,0.6l-2,6c-0.2,0.5,0.1,1.1,0.6,1.3c0.1,0,0.2,0.1,0.3,0.1c0.4,0,0.8-0.3,0.9-0.7l2-6 C18.1,21.8,17.8,21.2,17.3,21.1z"></path> 
<path d="M24.3,21.1c-0.5-0.2-1.1,0.1-1.3,0.6l-2,6c-0.2,0.5,0.1,1.1,0.6,1.3c0.1,0,0.2,0.1,0.3,0.1c0.4,0,0.8-0.3,0.9-0.7l2-6 C25.1,21.8,24.8,21.2,24.3,21.1z"></path> 
<path d="M22.3,11c-3.4,0-6.3,2-7.3,5.1c-2.7,0.1-4.9,2.3-4.9,5c0,1.9,1.1,3.5,2.7,4.4l1.4-4.3c0.5-1.6,2.2-2.4,3.8-1.9 c0.9,0.3,1.6,1,1.9,1.9c0.4,0,0.8,0,1.1,0.1c0.1,0,0.1,0,0.1,0.1l0.1-0.2c0.5-1.6,2.2-2.4,3.8-1.9c1.6,0.5,2.4,2.2,1.9,3.8l-0.7,2 c2.3-1.3,3.8-3.7,3.8-6.4C30,14.4,26.5,11,22.3,11z"></path> 
<path d="M19.1,9.5C17.8,7.4,15.6,6,13,6c-3.9,0-7,3.1-7,7c0,2.1,1,4.1,2.5,5.4c0.9-2.1,2.7-3.7,5-4.2C14.7,12,16.7,10.3,19.1,9.5z"></path> 
</g> 
</g>
</svg>