<svg xmlns="http://www.w3.org/2000/svg" xmlns:xlink="http://www.w3.org/1999/xlink" width="500" zoomAndPan="magnify" viewBox="0 0 375 345.749992" height="461" preserveAspectRatio="xMidYMid meet" version="1.0"><defs><clipPath id="845b6177db"><path d="M 0.136719 0 L 365 0 L 365 336 L 0.136719 336 Z M 0.136719 0 " clip-rule="nonzero"/></clipPath><clipPath id="b4bafa6ada"><path d="M 0.136719 189.867188 L 145.507812 189.867188 L 145.507812 335.238281 L 0.136719 335.238281 Z M 0.136719 189.867188 " clip-rule="nonzero"/></clipPath><clipPath id="ba21db5bbc"><path d="M 72.820312 189.867188 C 32.679688 189.867188 0.136719 222.410156 0.136719 262.554688 C 0.136719 302.699219 32.679688 335.238281 72.820312 335.238281 C 112.964844 335.238281 145.507812 302.699219 145.507812 262.554688 C 145.507812 222.410156 112.964844 189.867188 72.820312 189.867188 Z M 72.820312 189.867188 " clip-rule="nonzero"/></clipPath></defs><g clip-path="url(#845b6177db)"><path fill="#75d481" d="M 145.078125 9.941406 C 156.785156 3.164062 169.59375 0 182.257812 0.0351562 C 194.921875 0 207.734375 3.164062 219.441406 9.941406 C 227.023438 14.320312 233.542969 19.84375 238.914062 26.210938 L 239.101562 26.433594 C 239.285156 26.652344 239.46875 26.875 239.652344 27.09375 C 242.191406 30.1875 244.546875 33.539062 246.609375 37.144531 L 354.21875 223.5 C 374.648438 258.914062 362.425781 304.601562 327.011719 325.066406 C 291.597656 345.5 245.910156 333.242188 225.441406 297.824219 L 207.511719 266.753906 C 192.492188 240.765625 173.460938 199.863281 153.839844 180.460938 C 132.929688 159.847656 104.214844 147.109375 72.554688 147.109375 C 66.074219 147.109375 59.703125 147.660156 53.484375 148.691406 L 110.324219 50.25 C 114.816406 42.445312 119.121094 34.054688 124.867188 27.09375 C 125.050781 26.875 125.234375 26.652344 125.417969 26.433594 L 125.601562 26.210938 C 130.976562 19.84375 137.492188 14.320312 145.078125 9.941406 Z M 72.554688 190.4375 C 112.53125 190.4375 144.964844 222.871094 144.964844 262.851562 C 144.964844 302.871094 112.53125 335.265625 72.554688 335.265625 C 32.574219 335.265625 0.140625 302.871094 0.140625 262.851562 C 0.140625 222.871094 32.574219 190.4375 72.554688 190.4375 Z M 72.554688 190.4375 " fill-opacity="1" fill-rule="evenodd"/></g><g clip-path="url(#b4bafa6ada)"><g clip-path="url(#ba21db5bbc)"><path fill="#169d53" d="M 0.136719 189.867188 L 145.507812 189.867188 L 145.507812 335.238281 L 0.136719 335.238281 Z M 0.136719 189.867188 " fill-opacity="1" fill-rule="nonzero"/></g></g></svg>